<svg xmlns="http://www.w3.org/2000/svg" viewBox="0 0 454 145.09">
  <defs>
    <style>
      .cls-1, .cls-2 {
        fill: #010101;
      }

      .cls-2 {
        font-size: 40.99px;
        font-family: HelveticaNeueLTPro-Bd, Helvetica Neue LT Pro;
      }

      .cls-3 {
        font-family: HelveticaNeueLTPro-Roman, Helvetica Neue LT Pro;
      }
    </style>
  </defs>
  <title>EPS_logo</title>
  <g id="Ebene_2" data-name="Ebene 2">
    <g id="Ebene_1-2" data-name="Ebene 1">
      <g>
        <g>
          <path class="cls-1" d="M77.47,22.91a2.28,2.28,0,0,1,1.85.87c1,1.6,2.19,1.19,3.09.06,2.18-2.74,5.17-4.81,6.8-8,.72-1.41,1.36-2.88,2.14-4.26.64-1.1-.36-1.5-.85-1.81C83.52,5.33,76.17,2.39,67.59,3A63.44,63.44,0,0,1,60,3.52a1.64,1.64,0,0,0-1.27.55c-.35.59.81.41.7,1.2-3.8-2.12-7.24,0-10.76.93-2.07.56-4.08,1.36-6.1,2C41.51,6.05,42.44,5,44.68,4.57c1.43-.25,2.76-1.14,4.27-.9.67.1.58-.43.86-.63.85-.63,1.7-1,2.39.23a1.26,1.26,0,0,0,.46-1.17c.41,0,.73.54,1.17.25,1.48-1,3.64.41,4.87-1.41,2.46.87,4.58-1.13,7.12-.72C68.12.6,70.57.06,73,0a9.49,9.49,0,0,1,2,.38,1.52,1.52,0,0,0,1.28.33c2.41.86,5,1,7.39,2A29.65,29.65,0,0,1,91,6.88c1.65,1.25,2.5,1.27,3-.88,0-.22.38-.37.94-.89a16.52,16.52,0,0,1-.51,2.19,2.44,2.44,0,0,0,.76,3.06c2.3,1.49,3.66,3.78,5,5.94a32.77,32.77,0,0,1,4.92,12.27c1-.07.89-1.6,2-1.26v2.14c-.9-.26-1.61.29-1.21,1,.61,1.07-1.06,2.95,1.21,3.31v.86c-.54-.56-.75.12-.77.33,0,.47.14.89.77.53V42.3c-.92-.41-.85.34-.84.8.08,4.38-1.64,8.15-3.78,11.83-1.49,2.56-3.37,4.84-5.18,7.53,2.42-.11,3.6-2.43,5.73-2.49a7.86,7.86,0,0,1-4.12,4.14A38,38,0,0,0,87.78,72,87.16,87.16,0,0,1,71.93,83.83a7.46,7.46,0,0,1-3.6,1c-.35,0-.76.63-1,0s.1-.85.63-1.09a50,50,0,0,0,5.7-3c1.62-1,2.6-2.92,4.32-3.59,2.94-1.14,3.54-5,7.06-5.56a1.57,1.57,0,0,0-2-.3C77.52,73.67,71.73,75,65.93,76.37c-1.39.32-2.71.85-4.13,1.12s0,1.55-.64,2.5c-2.43-3.32-5.61-1.63-8.35-1.09-2.49.49-5-.16-7.32.5-3.42,1-6.8.07-10.19.21-.77,0-1.07-1.23-1.86-.44-.32-.14-.63-.3-.94,0-.58.11-1.33.52-1.69.3-2.16-1.33-4.71-.61-6.92-1.41-1.4-.51-3,.1-4.3-.87-.16-.12-.85.16-1,.43-.4.61.33.6.62.79,2.77,1.8,5.52,3.7,8.89,4.23,2.27.36,4.08,1.79,6.18,2.56a21.82,21.82,0,0,0,4.61,1.17c1,.13,1.39.77,1.25,1.5s-.82.57-1.49.29c-1.22-.5-2.64-.4-3.75-1.27A1.13,1.13,0,0,0,35,88.22c2.59,3.5,4.78,7.33,8.33,10,1.72,1.31,3.26.85,4.23-1.28a20.5,20.5,0,0,1,2.39-3.68c.24.31.52.51.56.75.37,2.16-3.27,6.43-5.43,6.38s-3.46-1.91-4.82-3.22c-2.87-2.76-4.79-6.31-7.24-9.44-.34-.44-.69-.88-1.06-1.3s-.6-.65-1.06-.24-.56.59-.24,1.08.46,1.19,0,1.55a1.58,1.58,0,0,1-1.95-.31c-1.56-1.41-4-2.13-4-4.87,0-.18-.48-.41-.77-.53a20.87,20.87,0,0,1-8.14-5.36c-2-2.24-4.54-2.29-6.89-3.16-.4-.15-1,0-1.06-.53-.07-.83.74-.42,1.12-.61.76-.38,1.6.54,2.34-.07-4.57-5-6.62-11.15-7.81-17.7A11,11,0,0,0,0,53v-.86c.79.59,2.06-.84,2.64.63.42-.34.83-.7.69-1.33-.61-2.77.15-5.49.3-8.23.17-3,1.94-5.54,3.25-8.14.43-.84.16-1.7.69-2.5.37-.58-.35-.12-.54-.2-1.31-.53-2.83-.74-3.51-2.4,1.42-.15,2.54.62,3.74,1a1.91,1.91,0,0,0,2.61-.88,48.11,48.11,0,0,1,7.23-9.23c.55-.56,1.42-.56,1.8-1.27.67-.14.79-.65.8-1.22,3.9-4,8.59-6.94,13.15-10.07,1.79-1.23,4.06-1.56,5.51-3.52.65-.88,1.58.17,1.87,1.13,1.29,4.38,2.47,8.8,3.9,13.13,1.1,3.32,1.65,6.81,3.16,10,.34.73-.22,1.77,1,2.46a39.59,39.59,0,0,0,1.35-5.24,29.86,29.86,0,0,1,4.62-13.1c3.28-4.95,8.28-7.39,14-8.62A32.33,32.33,0,0,1,72,4.4c1.12-.1,1.49.81,1,1.85a9.56,9.56,0,0,0-.71,4.32.46.46,0,0,0-.26.75l.58-.41a50.66,50.66,0,0,1,8-2.61c1.5-.27,1.74.45,1.93,1.39.81,4-.7,7.46-3,10.59A14.15,14.15,0,0,0,77.5,23c-.41.52-1.08.58-1.6.95a31.56,31.56,0,0,1-10.67,5,45.29,45.29,0,0,1-8.55,1.71c-2.87.13-5.12,2.22-8,2-.36,0-.33.41-.28.63.38,1.64.73,3.3,1.25,4.9.13.4.6,1.07,1.27.93,1.42-.32,2.94-.09,4.28-.82,3.27-1.78,7-2.32,10.39-3.94,4.35-2.09,8.55-4.43,12.73-6.8.81-.46,1.06-1,.29-2C78.1,24.83,76.88,24.17,77.47,22.91ZM16.33,54.33a43.25,43.25,0,0,1-.07-16c.18-.89-.24-1.43-1-2.06-1.1-.94-2.75-.56-3.56-1.49s-1.26,0-1.37.15A29.46,29.46,0,0,0,6,47.32a55,55,0,0,0,0,6.42c0,.55-.21,1.22.41,1.57a38,38,0,0,0,9.88,4.1c.51.12,1.25-.46,1-.61-1.32-.9-.17-2.2-.66-3.18A1.54,1.54,0,0,0,16.33,54.33ZM97.77,17.58a.51.51,0,0,1-.85-.22c-.08-2.9-3-3.44-4.17-5.52a47.79,47.79,0,0,1-2.56,5.07c-1.92,2.92-3.9,5.85-6.71,8C82,26.07,82,27.19,83.16,28.39c3.82,4,5.8,8.84,7.19,14,.28,1.07.59.76,1.34.23,3.68-2.57,6.51-6,9.7-9.11a3.23,3.23,0,0,0,1.21-3.37c-.35-1.69-1.19-3.12-1.62-4.73-.69-2.6-2.4-4.83-2.9-7.52a.46.46,0,0,0,.27-.75ZM26.59,72.32l-.5-.1c-.43-1.3-2-1.88-2.16-3.32a1.33,1.33,0,0,0-.85-.85,23.67,23.67,0,0,0-2.75-3.57c-1.14-1-1.42-3.05-3.51-3-3.67,0-6.47-2.6-9.93-3.27-.35,3,1,5.62,2.39,8.07,2,3.66,3,8.13,8.79,8.58,5.31.42,10.61,1.61,15.94,2.07a88.25,88.25,0,0,0,13.7,0,41.13,41.13,0,0,0,9-1.54c.81-.24,1.23-.32.91-1.35-.89-2.86-1.61-5.77-2.46-8.64-.32-1.09-1.65-1.76-2.27-1.39-3,1.74-6.25,1-9.33,1.46a26,26,0,0,1-10.81-.32c-1.5-.41-3.14-.43-4.7-.74-1.38-.28-2.65-.23-3.76-1.3-.67-.65-1.48-.12-2.15.23s-.19.7,0,1c1.68,2.31,3,4.87,5,7,.21.23.77.26.57.69S27,72.23,26.59,72.32ZM50.49,49.2c.18-.41.31-.8-.34-.9a29.33,29.33,0,0,1-1.28-4.59,2.54,2.54,0,0,0-3.06-2.39c-2.5.24-5,.2-7.45.36A42.08,42.08,0,0,1,29.84,41a28.57,28.57,0,0,1-9.48-2.61c-1.5-.81-2.05.06-2.35,1.41-.6,2.68-.07,5.38-.25,8.07s.81,5.27,1.06,7.92c.34,3.66,2.2,5.75,5.92,6.19,6.51.77,13,1.72,19.59,1.33a61.65,61.65,0,0,0,8.88-1.61c1.14-.24,1.13-.71.77-1.6-.74-1.85-2.18-3.83-1.93-5.56.31-2.22-1.72-3.27-1.54-5.14C50.51,49.34,50.49,49.27,50.49,49.2Zm38.14-4.12a2.44,2.44,0,0,0,0-.3C87.17,38.74,85.18,33,81,28.2c-.69-.78-.88-.18-1.26.12a60.46,60.46,0,0,1-9.78,5.89A73.56,73.56,0,0,1,52.4,40.66c-1.16.26-1.6.7-1.1,2.05.6,1.59.59,3.4,1.39,4.93,1.07,2,.89,4.43,1.92,6.56a19.33,19.33,0,0,1,1,3.94,2.43,2.43,0,0,1,0,.85c-.1.52-.81,1.21-.2,1.5a3.77,3.77,0,0,0,2.73.39c3.54-1.73,7.38-2.63,11-4.21,6.68-2.93,13.07-6.21,18.76-10.8C88.23,45.61,88.72,45.56,88.63,45.08ZM40.76,39.73c1.93,0,3.85,0,5.77,0,.51,0,1.42,0,1.09-.68-.89-1.74-.73-3.82-1.52-5.4-1.81-3.61-2.26-7.58-3.63-11.28s-2.1-7.46-3.09-11.21c-.2-.75-.66-1.18-1.37-.91-2.34.89-4.63,1.79-6.27,3.9C29.5,17,27.38,19.92,25.36,23c-2.35,3.52-3.89,7.35-5.7,11.1-.7,1.47-.1,1.79,1.18,2.3A49.7,49.7,0,0,0,40.76,39.73Zm48.3,11.79c0-.64,0-1.28,0-1.92,0-.44.3-1-.41-1.26s-.9.26-1.28.58a55.31,55.31,0,0,1-14.83,8.95C68.18,59.63,64,62,59.19,62.58c-1.76.22-2.07,1.42-1.76,3,.55,3,2.69,5.34,2.91,8.38.07,1,.79,1,1.34.79,3.16-1.18,6.57-1.15,9.79-2.17,4.19-1.33,8.46-2.38,12.62-3.82a3.26,3.26,0,0,0,2.27-1.9c.66-2,1.22-4,1.69-6.09A57.9,57.9,0,0,0,89.06,51.52ZM52,29.6c4.4-.92,9.09-.8,13.23-3.09a17.11,17.11,0,0,1,5.13-2.05c3.78-.62,5.36-3.92,7.76-6,1.49-1.27,2.53-4.18,2.8-6.74.14-1.43-.54-2-1.66-1.51-1.42.63-3,.68-4.39,1.56S72.26,13.31,71,14.07c-.47.27-.85.48-1.3,0a.84.84,0,0,1-.15-1.15c1.18-1.31.75-3,1.14-4.51.51-2-.13-2.54-2.07-1.9s-3.89,1.42-5.83,2.11c-3.84,1.38-6,4.15-7.44,7.61A38.22,38.22,0,0,0,52,29.6ZM87.8,67.17c.12.15.18.26.22.25,2.17-.55,3-2.61,4.51-4a44,44,0,0,0,8.72-11.21,23.44,23.44,0,0,0,2.64-11.36c0-2.08-1.13-4.08-.31-6.18.15-.37-.25-.77-.53-.8s-.58.32-.81.57c-.91,1-1.76,2.08-2.69,3.09a58.91,58.91,0,0,1-7.24,7c-1.75,1.33-.86,3.39-.74,5.27C92,56,91.11,61.89,87.8,67.17ZM27.24,15.45c-5.2,4-9.9,8.16-13.2,13.74-2.09,3.54-2.19,3.4,1.53,5.05,1.17.52,1.63.29,2.1-.77.72-1.58,1-3.4,1.86-4.8,2.33-3.84,4-8.11,7.34-11.31A1.64,1.64,0,0,0,27.24,15.45Zm-1.9,68.67L29,86.81C29,84.6,28.22,84,25.34,84.12Zm29-28.33-.49-.45c-.11.15-.3.3-.3.45s.19.31.3.46Zm-25-42c.13-.07.32-.11.36-.21s0-.39-.29-.32a.46.46,0,0,0-.27.26C29.13,13.56,29.28,13.68,29.35,13.77ZM97.4,62.67l-.28-.23a1.67,1.67,0,0,0-.28.43c0,.06.14.18.22.27Z"/>
          <path class="cls-1" d="M107,35.45c-.63.36-.82-.06-.77-.53,0-.21.23-.89.77-.33Z"/>
          <path class="cls-1" d="M62.19,131c.67-1.52.81-2.46,2.76-1.55,2.61,1.21,5.47,1.92,8,3.47a.56.56,0,0,0,.55,0,.77.77,0,0,0,.06-1,41.05,41.05,0,0,1-4.58-11,39.12,39.12,0,0,1-.77-12.9c.27-3.44,1-6.74,3.31-9.52,1.84-2.26,6.75-7.17,9-7.18A9,9,0,0,1,78,94.12a53.88,53.88,0,0,0-5.72,7.12c-2.18,3-1.53,6.25-2,9.38a24.87,24.87,0,0,0,.51,11,33.33,33.33,0,0,0,4.73,10.13,4.1,4.1,0,0,1,.85,1.87c.06.48.13,1.19-1.07,1a35.29,35.29,0,0,1-10.55-3.38c-.73-.35-1.47-1.07-1.45.57a1.17,1.17,0,0,1-1.09,1.1c-.36,0-.44-.6-.6-1-1.18-2.94-2.81-5.75-3.57-8.78a37.24,37.24,0,0,0-2.62-7.66c-.74-1.49-1.16-1.62-2.4-.3a101.9,101.9,0,0,1-16.33,14.3,4.16,4.16,0,0,1-5.07.05,13.91,13.91,0,0,0,4.83-2.84c1.93-1.45,4-2.7,5.89-4.27a63.3,63.3,0,0,0,7.26-6.64A9.35,9.35,0,0,1,55,112.59c2-.35,1.86,1.53,2.37,2.66C59.62,120.2,60.3,125.64,62.19,131Z"/>
          <path class="cls-1" d="M28.63,95.11c.8,0,1.18-.92,1.92-.21,3,2.92,6.78,5.24,8,9.65.65,2.36,1.36,4.78.52,7.2-.38,1.11.23,2,.1,3-.24,1.94-1.56,3.27-2.48,4.76-1.53,2.49-4,4.25-6.38,5.85-3.35,2.21-6.81,4.25-10.27,6.29a5.5,5.5,0,0,1-3.44.92c-.47-.05-.88-.06-.95-.48,0-.16.53-.49.87-.64a49.17,49.17,0,0,0,17.16-12.32c2.77-3.12,3.68-7.14,2.88-11.61-.56-3.09-1.39-5.93-3.44-8.19C31.83,97.91,30.18,96.74,28.63,95.11Z"/>
          <path class="cls-1" d="M59.62,99.32a1.64,1.64,0,0,1,1.47,1c.32.45.43,1.25,1.1,1s1-.82,1.22-1.57a41.39,41.39,0,0,1,3-7.62c1.61-2.74,3-5.89,6.33-7.11.92-.34,2-1.14,3-.53a2.13,2.13,0,0,1,1,2.89c2-1.68,2.83-4.15,4.86-5.58a14.44,14.44,0,0,1-4,6.81c-1.07,1-2.11.43-2.24-1.1-.07-.69.16-1.6-.67-1.83-.66-.18-1.26.42-1.82.85-1.75,1.34-2.52,3.35-3.49,5.19-1.58,3-3,6.14-4.48,9.18a2.47,2.47,0,0,1-4.48.16C60.14,100.58,59.41,100.23,59.62,99.32Z"/>
          <path class="cls-1" d="M85.8,88.12a3.51,3.51,0,0,1,1.18-2,12.34,12.34,0,0,0,3.58-7.86,1.15,1.15,0,0,1,1.13-1.18c.66,0,.91.67.77,1.26-.93,3.92-2.07,7.71-6,9.76C86.33,88.17,86.16,88.12,85.8,88.12Z"/>
          <path class="cls-1" d="M54.67,86.13c1.54,1.18,3.81,1.3,4.75,3.41.43,1,.67,1.84,0,2.7a3.65,3.65,0,0,0-.65,4.2c-1.91-1.6-2.28-3.5-1.26-5.21.69-1.17,1.53-2.18-.73-2.83-.76-.22-2.2-.59-2.42-2Z"/>
          <path class="cls-1" d="M82.66,88.6c-.56-.35-1.25-.68-.64-1.3,2-2,2.89-4.54,4.06-7,.19-.37.44-.8.94-.68s.39.61.3.89c-.91,2.75-1.69,5.58-4,7.57C83.09,88.29,82.87,88.44,82.66,88.6Z"/>
          <path class="cls-1" d="M21.18,89.56a23.26,23.26,0,0,1-6.71-6.4C16.32,83.07,18.44,85.11,21.18,89.56Z"/>
          <path class="cls-1" d="M19.37,83.12c1.72,0,5.44,3.69,5.8,5.77A27.83,27.83,0,0,1,19.37,83.12Z"/>
          <path class="cls-1" d="M54.34,86.45c-2-.87-1.43-2.88-1.88-4.43-.12-.39.36-.26.57-.3.57-.08,1,.09.91.78a6.92,6.92,0,0,0,.73,3.63Z"/>
          <path class="cls-1" d="M32.5,79.19c.31-.32.62-.16.94,0C33.13,79.74,32.82,79.74,32.5,79.19Z"/>
          <path class="cls-1" d="M19.7,18.38c0,.57-.13,1.08-.8,1.22C19.12,19.16,19.08,18.56,19.7,18.38Z"/>
          <path class="cls-1" d="M52.66,2.1a1.26,1.26,0,0,1-.46,1.17C52.37,2.88,51.88,2.24,52.66,2.1Z"/>
          <path class="cls-1" d="M76.25.71A1.52,1.52,0,0,1,75,.38C75.43.34,76,.08,76.25.71Z"/>
          <path class="cls-1" d="M60.21,5.58c-.1.08-.19.22-.29.24s-.3-.09-.32-.18-.11-.46.26-.31A2,2,0,0,1,60.21,5.58Z"/>
          <path class="cls-1" d="M52,29.6A38.22,38.22,0,0,1,55.3,16.23c1.4-3.46,3.6-6.23,7.44-7.61,1.94-.69,3.87-1.46,5.83-2.11s2.58-.08,2.07,1.9c-.39,1.49,0,3.2-1.14,4.51a.84.84,0,0,0,.15,1.15c.45.48.83.27,1.3,0,1.31-.76,2.67-1.48,3.94-2.27s3-.93,4.39-1.56c1.12-.49,1.8.08,1.66,1.51-.27,2.56-1.31,5.47-2.8,6.74-2.4,2.05-4,5.35-7.76,6a17.11,17.11,0,0,0-5.13,2.05C61.11,28.8,56.42,28.68,52,29.6Z"/>
          <path class="cls-1" d="M29,86.81l-3.66-2.69"/>
          <path class="cls-1" d="M50.49,49.2c-.49-.16-.43-.53-.34-.9C50.8,48.4,50.67,48.79,50.49,49.2Z"/>
          <path class="cls-1" d="M16.66,55.62c-.63-.3-.37-.82-.33-1.29A1.54,1.54,0,0,1,16.66,55.62Z"/>
          <path class="cls-1" d="M54.35,55.79l-.49.46c-.11-.15-.3-.3-.3-.46s.19-.3.3-.45Z"/>
          <path class="cls-1" d="M23.93,68.9c-.62,0-.9-.23-.85-.85A1.33,1.33,0,0,1,23.93,68.9Z"/>
          <path class="cls-1" d="M26.59,72.32c-.14.22.18.82-.44.62-.22-.07-.64-.42-.06-.72Z"/>
          <path class="cls-1" d="M97.77,17.58l.58-.41a.46.46,0,0,1-.27.75Z"/>
          <path class="cls-1" d="M29.35,13.77c-.07-.09-.22-.21-.2-.27a.46.46,0,0,1,.27-.26c.26-.07.38.1.29.32S29.48,13.7,29.35,13.77Z"/>
          <path class="cls-1" d="M72.64,10.91l-.58.41a.46.46,0,0,1,.26-.75Z"/>
          <path class="cls-1" d="M97.4,62.67l-.34.47c-.08-.09-.24-.21-.22-.27a1.67,1.67,0,0,1,.28-.43Z"/>
        </g>
        <text class="cls-2" transform="translate(132.75 67.14)">European <tspan class="cls-3"><tspan x="0" y="49.19">Project Semester</tspan></tspan></text>
      </g>
    </g>
  </g>
</svg>
