<svg xmlns="http://www.w3.org/2000/svg" viewBox="0 0 1416.04 508.96">
  <defs>
    <style>
      .cls-1 {
        fill: #eba556;
      }

      .cls-2 {
        fill: #0f0f0f;
      }
    </style>
  </defs>
  <title>A101-logo</title>
  <g id="Ebene_2" data-name="Ebene 2">
    <g id="Ebene_1-2" data-name="Ebene 1">
      <g>
        <g>
          <path class="cls-1" d="M241,446.34H347.62V66.62H233.7V11.33H415.57v435h95.26v54H241Z"/>
          <path class="cls-1" d="M830.59,441.67C795.29,504.29,744.66,509,711.35,509c-24,0-81.28-7.33-117.25-69.28-34.64-59.29-39.3-143.23-39.3-173.88C554.8,71.28,628.74,0,719.34,0c33.31,0,70.62,14.66,94.6,40,44.63,49.3,56.62,111.92,56.62,203.19C870.56,319.1,861.9,386.38,830.59,441.67Zm-190.52-46c12,31.31,34,56.62,77.27,56.62,74.61,0,87.94-113.25,87.94-207.84,0-142.56-30-188.53-88.6-188.53C672,56,642.07,92.6,631.41,147.22a626.66,626.66,0,0,0-11.33,117.25C620.08,288.45,620.08,342.41,640.07,395.71Z"/>
          <path class="cls-1" d="M912.53,446.34h106.59V66.62H905.2V11.33h181.87v435h95.26v54H912.53Z"/>
        </g>
        <g>
          <path class="cls-2" d="M110.15,296.83H44l-9.33,25.54H0L57.29,174.25H96.82l57.07,148.12H119.47ZM52.41,269.52h49.08L77.06,201.57Z"/>
          <path class="cls-2" d="M153.66,174.25h32v87.94c0,20.66,11.33,34.87,34.42,34.87,22.65,0,34-14.21,34-34.87V174.25h32v88.83c0,36.86-21.1,62-66,62-45.3,0-66.4-25.32-66.4-61.74Z"/>
          <path class="cls-2" d="M380.39,171.81c30.64,0,50,14.88,61.29,32.42l-26.21,14.22a42,42,0,0,0-35.08-18.66c-26.87,0-46.42,20.65-46.42,48.63s19.55,48.64,46.42,48.64c13.54,0,25.53-5.55,32-11.33v-18H372.84V240.65h70.61v56.63c-15.1,16.88-36.19,28-63.06,28-43.31,0-78.84-30.2-78.84-76.84C301.55,201.57,337.08,171.81,380.39,171.81Z"/>
          <path class="cls-2" d="M469,277.52a65,65,0,0,0,47.08,20c17.32,0,25.76-8.22,25.76-16.65,0-11.11-12.88-14.88-30-18.88-24.21-5.55-55.3-12.21-55.3-45.3,0-24.65,21.32-44.64,56.19-44.64,23.54,0,43.08,7.11,57.74,20.66l-17.55,23.09c-12-11.1-28-16.21-42.41-16.21-14.22,0-21.77,6.22-21.77,15.1,0,10,12.44,13.1,29.54,17.1,24.43,5.55,55.52,12.88,55.52,45.75,0,27.09-19.32,47.52-59.3,47.52-28.42,0-48.85-9.55-62.84-23.54Z"/>
          <path class="cls-2" d="M588.44,174.25h77.95c28.2,0,42.64,18,42.64,37.75,0,18.66-11.55,31.09-25.54,34,15.77,2.44,28.42,17.77,28.42,36.42,0,22.21-14.87,40-43.08,40H588.44Zm71.07,59.52c10.65,0,17.32-6.89,17.32-16.44,0-9.1-6.67-16.21-17.32-16.21H620v32.65Zm1.11,61.73c12,0,19.09-6.88,19.09-17.54,0-9.33-6.66-17.32-19.09-17.32H620V295.5Z"/>
          <path class="cls-2" d="M729,174.25h32v87.94c0,20.66,11.33,34.87,34.42,34.87,22.65,0,34-14.21,34-34.87V174.25h32v88.83c0,36.86-21.1,62-66,62-45.3,0-66.4-25.32-66.4-61.74Z"/>
          <path class="cls-2" d="M938.63,269.3h-23.1v53.07H884V174.25h69.28c30.87,0,49.75,20.21,49.75,47.75,0,26.2-16.44,40.19-32.43,44l33.31,56.4H967.72Zm10-68H915.53v40.86h33.09c12.66,0,22.21-8,22.21-20.43S961.28,201.35,948.62,201.35Z"/>
          <path class="cls-2" d="M1091.84,171.81c30.65,0,50,14.88,61.29,32.42l-26.2,14.22a42,42,0,0,0-35.09-18.66c-26.87,0-46.41,20.65-46.41,48.63s19.54,48.64,46.41,48.64c13.55,0,25.54-5.55,32-11.33v-18h-39.53V240.65h70.62v56.63c-15.1,16.88-36.2,28-63.07,28-43.3,0-78.83-30.2-78.83-76.84C1013,201.57,1048.54,171.81,1091.84,171.81Z"/>
          <path class="cls-2" d="M1173.33,174.25h104.82v27.1h-73.29v32.19h71.73v27.1h-71.73v34.42h73.29v27.31H1173.33Z"/>
          <path class="cls-2" d="M1350.75,269.3h-23.09v53.07h-31.54V174.25h69.29c30.87,0,49.74,20.21,49.74,47.75,0,26.2-16.43,40.19-32.42,44l33.31,56.4h-36.19Zm10-68h-33.09v40.86h33.09c12.66,0,22.2-8,22.2-20.43S1373.41,201.35,1360.75,201.35Z"/>
        </g>
      </g>
    </g>
  </g>
</svg>
